<svg width="250" height="160" viewBox="0 0 250 160" fill="none" xmlns="http://www.w3.org/2000/svg">
<rect width="250" height="160" rx="12" fill="#161723"/>
<line y1="24" x2="250" y2="24" stroke="#066DA5" stroke-width="4"/>
<circle cx="12" cy="12" r="4" fill="#066DA5"/>
<circle cx="28" cy="12" r="4" fill="#066DA5"/>
<circle cx="44" cy="12" r="4" fill="#066DA5"/>
<rect x="119" y="77" width="12" height="12" fill="#066DA5"/>
<rect x="103" y="77" width="12" height="12" fill="#066DA5"/>
<path d="M185 85.8195C185 85.8195 179.673 80.7883 168.723 82.564C167.539 73.9814 158.364 68.9502 158.364 68.9502C158.364 68.9502 149.782 79.3085 155.997 90.8506C154.221 91.7385 151.261 92.9223 146.822 92.9223H65.4354C63.9557 98.5454 63.9557 135.835 104.797 135.835C134.096 135.835 155.997 122.222 166.355 97.3616C181.745 98.5454 185 85.8195 185 85.8195Z" fill="#066DA5"/>
<rect x="71" y="77" width="12" height="12" fill="#066DA5"/>
<rect x="87" y="77" width="12" height="12" fill="#066DA5"/>
<rect x="87" y="61" width="12" height="12" fill="#066DA5"/>
<rect x="103" y="61" width="12" height="12" fill="#066DA5"/>
<rect x="119" y="61" width="12" height="12" fill="#066DA5"/>
<rect x="119" y="45" width="12" height="12" fill="#066DA5"/>
<rect x="135" y="77" width="12" height="12" fill="#066DA5"/>
</svg>
