<svg width="606" height="163" viewBox="0 0 606 163" fill="none" xmlns="http://www.w3.org/2000/svg">
<path d="M21.4 94.3V3.69995H2.70001V96.2C2.70001 135.7 25.6 159.5 61.9 159.5H101.3L109.3 141.7H67.2C37.4 141.8 21.4 126.5 21.4 94.3Z" fill="white"/>
<path d="M97.7 71.2V3.69995H80.4V83.1C80.3 85.5 82.2 87.5 84.6 87.5C84.7 87.5 84.8 87.5 84.9 87.5H134L141.3 71.1L97.7 71.2Z" fill="white"/>
<path d="M59.9 92.3V3.69995H41.9V92.9C41.9 112.2 53.3 123.3 73.1 123.3H117.9L125.6 105.9H73.9C64.8 106 59.9 101.6 59.9 92.3Z" fill="white"/>
<path d="M300.3 2.80004C297.2 2.60004 294.5 5.10004 294.3 8.20004C294.3 8.40004 294.3 8.60004 294.3 8.80004C294.2 12 296.7 14.7 299.9 14.9C300 14.9 300.2 14.9 300.3 14.9C303.6 14.9 306.3 12.2 306.3 8.90004C306.3 5.60004 303.6 2.90004 300.3 2.80004Z" fill="white"/>
<path d="M259.5 110.4C245 110.4 235.1 120.3 235.1 135C235.1 151 244.7 160.4 259.8 160.4C270.9 160.4 279.9 154.3 282 145.6H271.8C270.1 149.5 265.7 152.2 259.7 152.2C251.4 152.2 246.2 147.7 245.1 138.9H282.6C282.8 137.6 282.9 136.3 282.9 135C282.8 120.3 274.3 110.4 259.5 110.4ZM245.1 131.2C246.3 123.5 251.3 118.6 259.3 118.6C267.3 118.6 273 124 273 131.2H245.1Z" fill="white"/>
<path d="M266.9 22.1C260.4 22.1 254.7 24.6 251.2 28.9V23H241.6V71.1H251.2L251.3 43.5C251.3 35.5 255.9 30.6 263.4 30.6C270.6 30.6 274.5 35 274.5 43.5V71.1H284.1V41.4C284.1 29.8 278.2 22.1 266.9 22.1Z" fill="white"/>
<path d="M305 23H295.4V71.2H305V23Z" fill="white"/>
<path d="M216.9 118.1C213.4 113.7 207.3 110.4 199.9 110.4C186.3 110.4 176.3 120.7 176.3 135.6C176.3 150.5 186 160.4 199.7 160.4C207.5 160.4 213.5 158 216.9 152.8V159.4H226.5V92.1001H216.9V118.1ZM201.7 152C191.9 152 186.3 144.8 186.3 135.6C186.3 126.4 192 119.2 201.7 119.2C210.8 119.2 217.2 126.4 217.2 135.6C217.2 144.8 211.2 152 201.7 152Z" fill="white"/>
<path d="M429.2 31.7H446.2V23H432.2C425.5 22.8 419.8 28 419.6 34.8C419.6 35.1 419.6 35.4 419.6 35.7V71.2H429.2V31.7Z" fill="white"/>
<path d="M588 3.80005H576.6L570.2 17.7H578.9L588 3.80005Z" fill="white"/>
<path d="M220.2 45.2001C220.2 56.8001 215.1 62.8 203.9 62.8C192.7 62.8 187.4 56.7001 187.4 45.2001V3.80005H177.1V45C177.1 63.2001 186.9 72.1 203.9 72.1C220.9 72.1 230.5 63.1001 230.5 44.9001V3.80005H220.2V45.2001V45.2001Z" fill="white"/>
<path d="M341.6 71.2L359.9 23H349.5L335.6 63.1L321.6 23H311.2L329.5 71.2H341.6Z" fill="white"/>
<path d="M476.5 43L465.4 41.2C461.6 40.6 459.6 38.8 459.6 35.7C459.6 31.9 463.6 29.7 469.1 29.7C475.6 29.7 479.2 32.6 479.6 37.4H488.9C488.4 27.4 481.6 21.9 469.1 21.9C457.2 21.9 450.6 27.7 450.6 36.1C450.6 44.2 455.6 48.3 463.8 49.7L474 51.3C478.6 52.1 480.5 55.1 480.5 57.9C480.5 61.8 476.5 64.1 469.8 64.1C462.6 64.1 459.2 60.5 458.6 56.7H449.1C449.7 66.1 457.7 72.2 469.8 72.2C482.2 72.2 489.7 66.9 489.7 57.4C489.8 49 485.2 44.5 476.5 43Z" fill="white"/>
<path d="M504.4 2.80004C501.3 2.60004 498.6 5.10004 498.4 8.20004C498.4 8.40004 498.4 8.60004 498.4 8.80004C498.3 12 500.8 14.7 504 14.9C504.1 14.9 504.3 14.9 504.4 14.9C507.7 14.9 510.4 12.2 510.4 8.90004C510.4 5.60004 507.7 2.90004 504.4 2.80004Z" fill="white"/>
<path d="M509.1 23H499.5V71.2H509.1V23Z" fill="white"/>
<path d="M324.2 92.1001H313.9V159.5H352.8V150.6H324.2V92.1001Z" fill="white"/>
<path d="M530.7 8H521V58.8C521 66.1 526.2 71.2 533.5 71.2H545.5V62.5H530.6V31.7H545.5V23H530.6V8H530.7Z" fill="white"/>
<path d="M598 46.7C598 32 589.5 22 574.7 22C560.2 22 550.3 31.9 550.3 46.7C550.3 62.7 559.9 72.1 575 72.1C586.1 72.1 595.1 66 597.2 57.3H587C585.3 61.2 580.9 63.9 574.9 63.9C566.6 63.9 561.4 59.4 560.3 50.6H597.8C597.9 49.3 598 48 598 46.7ZM560.2 42.8C561.4 35.1 566.4 30.2 574.4 30.2C582.4 30.2 588.2 35.6 588.2 42.8H560.2Z" fill="white"/>
<path d="M457.5 110.4C443 110.4 433.1 120.3 433.1 135C433.1 151 442.7 160.4 457.8 160.4C468.9 160.4 477.9 154.3 480 145.6H469.8C468.1 149.5 463.7 152.2 457.7 152.2C449.4 152.2 444.2 147.7 443.1 138.9H480.6C480.8 137.6 480.9 136.3 480.9 135C480.8 120.3 472.3 110.4 457.5 110.4ZM443 131.2C444.2 123.5 449.2 118.6 457.2 118.6C465.2 118.6 471 124 471 131.2H443Z" fill="white"/>
<path d="M364.7 91.1001C361.6 90.9001 358.9 93.4001 358.7 96.5001C358.7 96.7001 358.7 96.9001 358.7 97.1001C358.6 100.3 361.1 103 364.3 103.2C364.4 103.2 364.6 103.2 364.7 103.2C368 103.2 370.7 100.5 370.7 97.2001C370.7 93.9001 368 91.2001 364.7 91.1001Z" fill="white"/>
<path d="M418.3 92.1001H408.7V147.2C408.7 154.9 413.2 159.5 421.1 159.5H430.7V150.6H418.3V92.1001Z" fill="white"/>
<path d="M369.4 111.4H359.8V159.6H369.4V111.4Z" fill="white"/>
<path d="M391 92.1001H381.4V147.2C381.4 154.9 385.9 159.5 393.8 159.5H403.4V150.6H391V92.1001Z" fill="white"/>
<path d="M399 57.3C397.3 61.2 392.9 63.9 386.9 63.9C378.6 63.9 373.4 59.4 372.3 50.6H409.8C410 49.3 410.1 47.9 410.1 46.6C410.1 31.9 401.6 21.9 386.8 21.9C372.3 21.9 362.4 31.8 362.4 46.6C362.4 62.6 372 72 387 72C398.1 72 407.1 65.9 409.2 57.2L399 57.3ZM386.4 30.2C394.5 30.2 400.2 35.6 400.2 42.8H372.3C373.4 35.2 378.4 30.2 386.4 30.2Z" fill="white"/>
</svg>
