<svg width="250" height="160" viewBox="0 0 250 160" fill="none" xmlns="http://www.w3.org/2000/svg">
<rect width="250" height="160" rx="12" fill="#161723"/>
<line y1="22" x2="250" y2="22" stroke="#689F63" stroke-width="4"/>
<path d="M124.999 140.91C123.701 140.91 122.412 140.569 121.275 139.914L109.42 132.895C107.649 131.905 108.513 131.555 109.097 131.353C111.458 130.526 111.937 130.34 114.457 128.909C114.722 128.758 115.068 128.811 115.34 128.971L124.447 134.375C124.776 134.553 125.243 134.553 125.547 134.375L161.059 113.878C161.387 113.691 161.601 113.309 161.601 112.918V71.9399C161.601 71.5311 161.387 71.1666 161.051 70.9622L125.555 50.4822C125.226 50.2867 124.79 50.2867 124.461 50.4822L88.9715 70.9622C88.6275 71.1577 88.4089 71.5399 88.4089 71.931V112.909C88.4089 113.3 88.6222 113.673 88.96 113.86L98.6844 119.478C103.964 122.118 107.191 119.007 107.191 115.878V75.4333C107.191 74.8555 107.644 74.4111 108.222 74.4111H112.72C113.28 74.4111 113.742 74.8555 113.742 75.4333V115.895C113.742 122.935 109.902 126.98 103.227 126.98C101.173 126.98 99.5555 126.98 95.04 124.758L85.7244 119.389C83.4222 118.055 82 115.567 82 112.909V71.931C82 69.2644 83.4222 66.7755 85.7244 65.46L121.271 44.9533C123.52 43.6822 126.507 43.6822 128.738 44.9533L164.24 65.4688C166.533 66.7933 167.964 69.2733 167.964 71.9399V112.918C167.964 115.575 166.533 118.055 164.24 119.389L128.738 139.895C127.6 140.553 126.311 140.891 124.995 140.891" fill="#689F63"/>
<path d="M135.968 112.673C120.43 112.673 117.172 105.541 117.172 99.5585C117.172 98.9896 117.631 98.5363 118.201 98.5363H122.787C123.294 98.5363 123.721 98.9052 123.801 99.4056C124.494 104.079 126.556 106.437 135.952 106.437C143.436 106.437 146.619 104.746 146.619 100.777C146.619 98.4928 145.712 96.795 134.085 95.6572C124.361 94.6972 118.352 92.555 118.352 84.7772C118.352 77.6128 124.396 73.3461 134.521 73.3461C145.89 73.3461 151.525 77.2928 152.236 85.7728C152.263 86.0661 152.156 86.3505 151.961 86.5639C151.765 86.7683 151.49 86.8928 151.205 86.8928H146.592C146.112 86.8928 145.694 86.555 145.596 86.0928C144.485 81.1772 141.801 79.6039 134.503 79.6039C126.334 79.6039 125.383 82.4483 125.383 84.5817C125.383 87.1683 126.503 87.9239 137.525 89.3816C148.441 90.8305 153.623 92.875 153.623 100.546C153.623 108.279 147.17 112.715 135.916 112.715" fill="#689F63"/>
<circle cx="12" cy="12" r="4" fill="#689F63"/>
<circle cx="28" cy="12" r="4" fill="#689F63"/>
<circle cx="44" cy="12" r="4" fill="#689F63"/>
</svg>
