<svg width="300" height="160" viewBox="0 0 300 160" fill="none" xmlns="http://www.w3.org/2000/svg">
<path d="M275.171 7.5144C275.172 6.56707 275.006 5.62884 274.683 4.75325C274.36 3.87765 273.886 3.08185 273.288 2.41129C272.69 1.74071 271.979 1.20849 271.197 0.845034C270.415 0.48156 269.577 0.293966 268.73 0.292948L31.629 0.00772185C30.7821 0.00670301 29.9432 0.192278 29.1603 0.55387C28.3774 0.915447 27.6657 1.44595 27.0661 2.11509C26.4664 2.78421 25.9904 3.57887 25.6652 4.45369C25.3401 5.3285 25.1721 6.26633 25.171 7.21366L24.9999 150.798L150 150.948L275 151.098L275.171 7.5144Z" fill="#161723"/>
<path d="M150 160C232.843 160 300 155.901 300 150.846C300 145.79 232.843 141.691 150 141.691C67.1573 141.691 0 145.79 0 150.846C0 155.901 67.1573 160 150 160Z" fill="url(#paint0_linear_722_92)"/>
<path d="M149.524 84.6065C154.472 84.6065 158.483 80.5783 158.483 75.6093C158.483 70.6403 154.472 66.6121 149.524 66.6121C144.577 66.6121 140.566 70.6403 140.566 75.6093C140.566 80.5783 144.577 84.6065 149.524 84.6065Z" fill="#009FE3"/>
<path d="M131.835 85.653C118.808 62.094 116.218 38.5447 126.05 33.0542C135.883 27.5636 154.415 42.2111 167.442 65.7701C180.47 89.3291 183.06 112.878 173.227 118.369C163.395 123.859 144.863 109.212 131.835 85.653ZM162.875 68.1598C152.249 48.9432 135.609 34.2346 127.589 38.7131C119.569 43.1916 126.047 62.8563 136.673 82.0729C147.3 101.29 161.944 116.578 169.964 112.099C177.984 107.621 173.501 87.3764 162.875 68.1598Z" fill="#009FE3"/>
<path d="M166.785 86.7902C152.548 109.631 133.278 123.283 123.745 117.283C114.212 111.282 118.026 87.9015 132.264 65.0605C146.501 42.2195 165.771 28.5675 175.303 34.568C184.836 40.5684 181.022 63.9491 166.785 86.7902ZM136.551 67.9251C124.938 86.5561 120.157 108.301 127.933 113.196C135.709 118.09 149.716 102.893 161.329 84.262C172.942 65.631 179.192 45.3618 171.416 40.4674C163.64 35.5729 148.165 49.2942 136.551 67.9251Z" fill="#009FE3"/>
<path d="M149.562 96.3112C122.742 96.2111 101.034 86.9666 101.076 75.663C101.117 64.3593 122.893 55.277 149.714 55.3771C176.534 55.4771 198.242 64.7216 198.201 76.0253C198.159 87.3289 176.383 96.4112 149.562 96.3112ZM149.555 60.5489C127.678 60.4672 106.774 67.8612 106.74 77.0814C106.706 86.3015 126.944 90.2381 148.82 90.3198C170.697 90.4014 191.129 85.0403 191.163 75.8202C191.197 66.6001 171.432 60.6305 149.555 60.5489Z" fill="#009FE3"/>
<defs>
<linearGradient id="paint0_linear_722_92" x1="150" y1="146.851" x2="150" y2="154.008" gradientUnits="userSpaceOnUse">
<stop stop-color="#3D3A5B"/>
<stop offset="1" stop-color="#161723"/>
</linearGradient>
</defs>
</svg>
