<svg width="87" height="160" viewBox="0 0 87 160" fill="none" xmlns="http://www.w3.org/2000/svg">
<rect width="86.4596" height="160" rx="12" fill="#161723"/>
<path d="M43.3373 84.5916C45.8646 84.5916 47.9134 82.544 47.9134 80.0182C47.9134 77.4923 45.8646 75.4448 43.3373 75.4448C40.81 75.4448 38.7612 77.4923 38.7612 80.0182C38.7612 82.544 40.81 84.5916 43.3373 84.5916Z" fill="#009FE3"/>
<path d="M34.3017 85.1236C27.6472 73.1482 26.3242 61.1777 31.3467 58.3867C36.3692 55.5958 45.8354 63.0413 52.4899 75.0168C59.1444 86.9922 60.4674 98.9627 55.4449 101.754C50.4224 104.545 40.9562 97.099 34.3017 85.1236ZM50.157 76.2315C44.7291 66.4634 36.2294 58.9868 32.1326 61.2633C28.0359 63.5398 31.3451 73.5357 36.773 83.3038C42.201 93.0719 49.6812 100.843 53.7779 98.5667C57.8747 96.2902 55.585 85.9996 50.157 76.2315Z" fill="#009FE3"/>
<path d="M52.1542 85.7016C44.8816 97.3121 35.0386 104.252 30.1691 101.201C25.2997 98.1513 27.2478 86.2665 34.5204 74.6561C41.793 63.0456 51.6361 56.1061 56.5055 59.1563C61.375 62.2064 59.4268 74.0912 52.1542 85.7016ZM36.7107 76.1122C30.7786 85.5826 28.3365 96.6362 32.3084 99.1241C36.2803 101.612 43.4351 93.8869 49.3672 84.4165C55.2993 74.9461 58.4918 64.6429 54.5199 62.155C50.548 59.6671 42.6428 66.6418 36.7107 76.1122Z" fill="#009FE3"/>
<path d="M43.3568 90.5412C29.6567 90.4904 18.568 85.7912 18.5893 80.0454C18.6106 74.2996 29.734 69.6829 43.434 69.7338C57.134 69.7846 68.2228 74.4838 68.2015 80.2296C68.1802 85.9754 57.0568 90.5921 43.3568 90.5412ZM43.3529 72.3627C32.1781 72.3212 21.5002 76.0797 21.4828 80.7664C21.4654 85.4532 31.8029 87.4542 42.9777 87.4957C54.1525 87.5372 64.589 84.8121 64.6064 80.1253C64.6238 75.4386 54.5277 72.4042 43.3529 72.3627Z" fill="#009FE3"/>
</svg>
