<svg width="209" height="194" viewBox="0 0 209 194" fill="none" xmlns="http://www.w3.org/2000/svg">
<path d="M71.9999 8.25184L110.851 152.329C116.249 172.345 134.403 186.252 155.134 186.252L164.702 186.252C184.748 186.252 200.999 170.001 200.999 149.955V149.955C200.999 134.448 191.148 120.654 176.481 115.622L166.759 112.286C153.414 107.708 154.465 88.495 168.23 85.4005L170.737 84.837C188.428 80.8597 200.999 65.1495 200.999 47.0164V47.0164C200.999 25.6073 183.643 8.25188 162.234 8.25187L71.9999 8.25184ZM71.9999 8.25184L51.995 8.25184C27.6968 8.25184 7.99916 27.9495 7.99916 52.2477L7.99916 54.7437C7.99916 77.6634 26.5793 96.2436 49.499 96.2436V96.2436C72.4188 96.2436 90.9989 114.824 90.9989 137.743L90.9989 144.752C90.9989 167.672 72.4187 186.252 49.499 186.252V186.252C26.5792 186.252 7.99917 167.672 7.99917 144.752L7.99917 133.243" stroke="#265A77" stroke-width="10"/>
</svg>
