<svg width="491" height="437" viewBox="0 0 491 437" fill="none"
    xmlns="http://www.w3.org/2000/svg">
    <path fill-rule="evenodd" clip-rule="evenodd" d="M490.6 218.39C490.6 185.906 449.9 155.122 387.5 136.031C401.9 72.4635 395.5 21.889 367.3 5.69712C360.826 1.9143 353.261 0.114441 345 0.100035V0C317.5 0 281.5 19.5901 245.1 53.573C208.7 19.79 172.7 0.3998 145.2 0.3998V0.499748C136.8 0.499748 129.2 2.29884 122.6 6.09692C94.5 22.2888 88.2 72.7633 102.7 136.131C40.5 155.322 0 186.006 0 218.39C0 250.874 40.7 281.658 103.1 300.748C88.7 364.316 95.1 414.891 123.3 431.083C129.8 434.881 137.4 436.68 145.8 436.68C173.3 436.68 209.3 417.09 245.7 383.107C282.1 416.89 318.1 436.28 345.6 436.28C354 436.28 361.6 434.481 368.2 430.683C396.3 414.491 402.6 364.016 388.1 300.648C450.1 281.558 490.6 250.774 490.6 218.39ZM261 69.1651C293.548 38.9289 324.102 22.342 344.9 22.2889V22.3887C349.5 22.3887 353.2 23.2883 356.3 24.9874C369.9 32.7835 375.8 62.4685 371.2 100.649C370.1 110.045 368.3 119.94 366.1 130.034C346.5 125.237 325.1 121.539 302.6 119.14C289.1 100.649 275.1 83.8577 261 69.1651ZM145.2 22.6886C165.9 22.6886 196.6 39.1802 229.2 69.2651C215.2 83.9577 201.2 100.649 187.9 119.14C165.3 121.539 143.9 125.237 124.3 130.134C122 120.139 120.3 110.444 119.1 101.149C114.4 62.9683 120.2 33.2832 133.7 25.3872C136.7 23.5881 140.6 22.7885 145.2 22.7885V22.6886ZM360.4 151.724C356.7 164.617 352.1 177.91 346.9 191.204C342.8 183.208 338.5 175.212 333.8 167.216C329.2 159.22 324.3 151.424 319.4 143.827C333.6 145.926 347.3 148.525 360.4 151.724ZM314.6 258.17C306.8 271.663 298.8 284.457 290.5 296.351C275.6 297.65 260.5 298.35 245.3 298.35C230.2 298.35 215.1 297.65 200.3 296.451C192 284.557 183.9 271.863 176.1 258.47C168.5 245.376 161.6 232.083 155.3 218.69C161.5 205.296 168.5 191.903 176 178.81C183.8 165.317 191.8 152.523 200.1 140.629C215 139.33 230.1 138.63 245.3 138.63C260.4 138.63 275.5 139.33 290.3 140.529C298.6 152.423 306.7 165.117 314.5 178.51C322.1 191.603 329 204.897 335.3 218.29C329 231.683 322.1 245.076 314.6 258.17ZM346.9 245.176C352.3 258.57 356.9 271.963 360.7 284.956C347.6 288.155 333.8 290.853 319.5 292.952C324.4 285.256 329.3 277.36 333.9 269.264C338.5 261.268 342.8 253.172 346.9 245.176ZM245.5 351.823C236.2 342.227 226.9 331.533 217.7 319.839C226.7 320.239 235.9 320.538 245.2 320.538C254.6 320.538 263.9 320.339 273 319.839C264 331.533 254.7 342.227 245.5 351.823ZM171.1 292.952C156.9 290.853 143.2 288.255 130.1 285.056C133.8 272.163 138.4 258.87 143.6 245.576C147.7 253.572 152 261.568 156.7 269.564C161.4 277.56 166.2 285.356 171.1 292.952ZM245 84.9572C254.3 94.5523 263.6 105.247 272.8 116.941C263.8 116.541 254.6 116.241 245.3 116.241C235.9 116.241 226.6 116.441 217.5 116.941C226.5 105.247 235.8 94.5523 245 84.9572ZM171 143.827C166.1 151.524 161.2 159.42 156.6 167.516C152 175.512 147.7 183.507 143.6 191.503C138.2 178.11 133.6 164.717 129.8 151.724C142.9 148.625 156.7 145.926 171 143.827ZM80.5 268.964C45.1 253.872 22.2 234.082 22.2 218.39C22.2 202.698 45.1 182.808 80.5 167.815C89.1 164.117 98.5 160.819 108.2 157.72C113.9 177.311 121.4 197.7 130.7 218.59C121.5 239.379 114.1 259.669 108.5 279.159C98.6 276.061 89.2 272.663 80.5 268.964ZM134.3 411.792C120.7 403.996 114.8 374.311 119.4 336.131C120.5 326.735 122.3 316.84 124.5 306.745C144.1 311.543 165.5 315.241 188 317.64C201.5 336.131 215.5 352.922 229.6 367.615C197 397.899 166.4 414.491 145.6 414.491C141.1 414.391 137.3 413.492 134.3 411.792ZM371.5 335.631C376.2 373.812 370.4 403.497 356.9 411.393C353.9 413.192 350 413.991 345.4 413.991C324.7 413.991 294 397.5 261.4 367.415C275.4 352.722 289.4 336.031 302.7 317.54C325.3 315.141 346.7 311.443 366.3 306.545C368.6 316.64 370.4 326.335 371.5 335.631ZM410 268.964C401.4 272.663 392 275.961 382.3 279.059C376.6 259.469 369.1 239.079 359.8 218.19C369 197.4 376.4 177.111 382 157.621C391.9 160.719 401.3 164.117 410.1 167.815C445.5 182.908 468.4 202.698 468.4 218.39C468.3 234.082 445.4 253.972 410 268.964ZM288.3 189.907H202.3C196.225 189.907 191.3 194.832 191.3 200.907V234.873C191.3 240.949 196.225 245.873 202.3 245.873H288.3C294.375 245.873 299.3 240.949 299.3 234.873V200.907C299.3 194.832 294.375 189.907 288.3 189.907ZM202.3 184.907C193.463 184.907 186.3 192.07 186.3 200.907V234.873C186.3 243.71 193.463 250.873 202.3 250.873H288.3C297.137 250.873 304.3 243.71 304.3 234.873V200.907C304.3 192.07 297.137 184.907 288.3 184.907H202.3ZM238.513 238.599L217.3 217.396L224.371 210.329L238.664 224.615L267.099 196.194L274.17 203.261L238.815 238.599L238.664 238.448L238.513 238.599Z" fill="#84A59D"/>
</svg>
