<svg width="480" height="431" viewBox="0 0 480 431" fill="none" xmlns="http://www.w3.org/2000/svg">
<path fill-rule="evenodd" clip-rule="evenodd" d="M140.786 243.112C144.336 250.178 148.08 257.264 152.018 264.35C155.72 271.012 159.513 277.53 163.382 283.893C150.792 282.684 138.674 281.146 127.214 279.263C130.999 267.495 135.545 255.371 140.786 243.112ZM120.484 303.053C139.748 307.761 160.697 311.384 182.854 313.722C194.871 330.873 207.363 346.529 219.99 360.424C186.185 395.349 154.513 413.448 132.732 399.805C111.872 386.739 109.298 349.253 120.484 303.053ZM0.000297223 215.219C-0.121281 247.969 37.0647 277.205 94.7449 295.801C79.3648 354.949 84.1272 402.423 112.035 419.904C140.907 437.989 187.854 419.774 236.072 377.102C281.616 421.478 327.04 441.659 356.578 425.245C385.966 408.915 392.899 360.102 379.548 298.439C440.262 280.396 479.875 250.707 480 217.001C480.122 184.09 442.57 154.729 384.406 136.146C399.451 77.4967 394.579 30.4902 366.84 13.1151C338.312 -4.75407 292.141 12.8147 244.531 54.3964C198.788 9.61467 153.095 -10.8156 123.428 5.67003C93.8463 22.1081 87.0165 71.4598 100.726 133.699C39.8567 151.734 0.12561 181.463 0.000297223 215.219ZM27.9947 222.195C27.9036 246.73 57.1441 263.658 101.128 274.091C107.593 254.312 116.092 233.558 126.526 212.432C118.796 194.349 112.405 176.602 107.392 159.55C60.2318 174.432 28.0886 196.918 27.9947 222.195ZM143.194 181.272C138.943 171.607 135.055 162.118 131.591 152.895C142.247 150.361 153.426 148.184 164.977 146.407C161.305 151.844 157.688 157.402 154.133 163.076C150.336 169.139 146.689 175.208 143.194 181.272ZM175.325 177.165C182.864 165.129 190.732 153.51 198.8 142.46C212.184 141.38 225.848 140.837 239.589 140.888C254.516 140.944 269.245 141.551 283.544 142.676C291.233 154.074 298.578 166.008 305.418 178.318C311.83 189.857 317.79 201.472 323.239 213.012C315.557 227.82 307.01 242.769 297.777 257.509C291.685 267.234 285.46 276.77 279.152 286.017C265.039 286.921 250.564 287.355 235.959 287.301C223.789 287.255 211.722 286.97 199.888 286.434C191.59 273.77 183.55 260.46 175.927 246.743C169.089 234.436 162.598 222.092 156.568 209.881C162.325 198.87 168.592 187.912 175.325 177.165ZM240.374 115.454C248.415 115.483 256.363 115.679 264.199 116.032C257.081 106.922 249.8 98.321 242.461 90.3347C234.835 98.149 227.187 106.659 219.614 115.748C226.456 115.527 233.38 115.428 240.374 115.454ZM327.989 166.566C324.135 159.631 320.184 152.853 316.15 146.244C327.956 147.918 339.296 149.969 350.015 152.373C346.362 162.603 342.091 173.181 337.274 183.966C334.309 178.173 331.214 172.37 327.989 166.566ZM298.136 118.604C319.167 120.862 339.099 124.281 357.523 128.685C368.84 87.309 367.521 54.5883 347.629 42.1282C326.974 29.1903 295.325 42.7015 261.556 72.1949C274.003 86.0453 286.305 101.601 298.136 118.604ZM353.435 218.375C363.231 198.306 371.273 178.591 377.476 159.751C418.535 172.866 445.306 192.235 445.217 215.992C445.127 240.276 416.126 259.116 372.6 271.317C367.579 254.246 361.178 236.479 353.435 218.375ZM338.1 247.508C342.018 257.596 345.479 267.502 348.441 277.117C338.352 279.177 327.736 280.936 316.726 282.384C319.43 278.302 322.103 274.154 324.741 269.942C329.424 262.467 333.878 254.98 338.1 247.508ZM239.159 339.125C245.162 332.008 251.186 324.462 257.188 316.566C251.389 316.72 245.532 316.788 239.626 316.766C233.328 316.743 227.087 316.618 220.911 316.395C226.951 324.413 233.052 332.017 239.159 339.125ZM355.723 304.668C336.555 309.043 315.788 312.345 293.878 314.386C281.646 330.284 269.033 344.821 256.346 357.782C288.393 390.008 319.149 406.248 340.451 394.412C361.731 382.587 365.2 348.412 355.723 304.668ZM123.043 127.835C142.393 123.356 163.394 119.974 185.572 117.885C198.442 101.221 211.725 86.0634 225.069 72.6637C188.83 38.447 153.243 21.1582 131.032 33.5005C108.743 45.8859 109.112 81.8882 123.043 127.835ZM300 215.075L273.925 189L267.146 195.779L286.441 215.075L267.146 234.37L273.925 241.149L293.221 221.854L300 215.075ZM186.779 221.854L206.075 241.149L212.854 234.37L193.559 215.075L212.854 195.779L206.075 189L186.779 208.295L180 215.075L186.779 221.854ZM220.563 209.65H205.813V219.238H220.563V209.65ZM247.113 209.65H232.363V219.238H247.113V209.65ZM258.913 209.65H273.663V219.238H258.913V209.65Z" fill="#B06262"/>
</svg>
