<?xml version="1.0" encoding="UTF-8" standalone="no"?>
<svg
   xmlns:dc="http://purl.org/dc/elements/1.1/"
   xmlns:cc="http://creativecommons.org/ns#"
   xmlns:rdf="http://www.w3.org/1999/02/22-rdf-syntax-ns#"
   xmlns:svg="http://www.w3.org/2000/svg"
   xmlns="http://www.w3.org/2000/svg"
   xmlns:sodipodi="http://sodipodi.sourceforge.net/DTD/sodipodi-0.dtd"
   xmlns:inkscape="http://www.inkscape.org/namespaces/inkscape"
   version="1.1"
   id="svg2"
   xml:space="preserve"
   width="392.97333"
   height="392.97333"
   viewBox="0 0 392.97333 392.97333"
   sodipodi:docname="silbo-icon-jaune.eps"><metadata
     id="metadata8"><rdf:RDF><cc:Work
         rdf:about=""><dc:format>image/svg+xml</dc:format><dc:type
           rdf:resource="http://purl.org/dc/dcmitype/StillImage" /></cc:Work></rdf:RDF></metadata><defs
     id="defs6" /><sodipodi:namedview
     pagecolor="#ffffff"
     bordercolor="#666666"
     borderopacity="1"
     objecttolerance="10"
     gridtolerance="10"
     guidetolerance="10"
     inkscape:pageopacity="0"
     inkscape:pageshadow="2"
     inkscape:window-width="640"
     inkscape:window-height="480"
     id="namedview4" /><g
     id="g10"
     inkscape:groupmode="layer"
     inkscape:label="ink_ext_XXXXXX"
     transform="matrix(1.3333333,0,0,-1.3333333,0,392.97333)"><g
       id="g12"
       transform="scale(0.1)"><path
         d="M 2656.46,0 H 290.852 C 130.219,0 0,130.211 0,290.852 V 2656.46 c 0,160.63 130.219,290.85 290.852,290.85 H 2656.46 c 160.64,0 290.85,-130.22 290.85,-290.85 V 290.852 C 2947.31,130.211 2817.1,0 2656.46,0"
         style="fill:#fab93e;fill-opacity:1;fill-rule:nonzero;stroke:none"
         id="path14" /><path
         d="M 1999.61,1896.53 880.949,1492.71 c -35,-12.63 -53.855,-52.88 -38.48,-86.76 68.5,-150.93 173.791,-260.26 315.871,-328.16 161.28,-77.02 330.99,-83.38 508.9,-19.16 177.92,64.23 305.17,177.78 381.63,340.62 67.31,143.48 79.29,295.12 35.79,455.05 -9.78,35.93 -50.03,54.86 -85.05,42.23"
         style="fill:#2b3682;fill-opacity:1;fill-rule:nonzero;stroke:none"
         id="path16" /></g></g></svg>
